<mxfile host="app.diagrams.net" modified="2024-04-04T09:04:06.976Z" agent="Mozilla/5.0 (Macintosh; Intel Mac OS X 10_15_7) AppleWebKit/537.36 (KHTML, like Gecko) Chrome/118.0.0.0 Safari/537.36" etag="42dOqlKivo5zutWp2SYJ" version="24.2.2" type="github">
  <diagram name="第 1 页" id="H5Td6hfvK_dSOBT4_KqR">
    <mxGraphModel dx="1026" dy="601" grid="1" gridSize="10" guides="1" tooltips="1" connect="1" arrows="1" fold="1" page="1" pageScale="1" pageWidth="827" pageHeight="1169" math="0" shadow="0">
      <root>
        <mxCell id="0" />
        <mxCell id="1" parent="0" />
      </root>
    </mxGraphModel>
  </diagram>
</mxfile>
